<svg width="25" height="25" viewBox="0 0 25 25" fill="none" xmlns="http://www.w3.org/2000/svg">
<mask id="mask0_1_1522" style="mask-type:alpha" maskUnits="userSpaceOnUse" x="0" y="0" width="25" height="25">
<rect x="0.0205078" y="0.939941" width="24" height="24" fill="#D9D9D9"/>
</mask>
<g mask="url(#mask0_1_1522)">
<path d="M15.1455 22.04L6.72051 13.64C6.62051 13.54 6.54968 13.4316 6.50801 13.315C6.46634 13.1983 6.44551 13.0733 6.44551 12.94C6.44551 12.8066 6.46634 12.6816 6.50801 12.565C6.54968 12.4483 6.62051 12.34 6.72051 12.24L15.1455 3.81497C15.3788 3.58163 15.6705 3.46497 16.0205 3.46497C16.3705 3.46497 16.6705 3.58997 16.9205 3.83997C17.1705 4.08997 17.2955 4.38163 17.2955 4.71497C17.2955 5.0483 17.1705 5.33997 16.9205 5.58997L9.57051 12.94L16.9205 20.29C17.1538 20.5233 17.2705 20.8108 17.2705 21.1525C17.2705 21.4941 17.1455 21.79 16.8955 22.04C16.6455 22.29 16.3538 22.415 16.0205 22.415C15.6872 22.415 15.3955 22.29 15.1455 22.04Z" fill="white"/>
</g>
</svg>
