<svg width="25" height="25" viewBox="0 0 25 25" fill="none" xmlns="http://www.w3.org/2000/svg">
<mask id="mask0_1_1539" style="mask-type:alpha" maskUnits="userSpaceOnUse" x="0" y="0" width="25" height="25">
<rect width="24" height="24" transform="matrix(-1 0 0 1 24.4795 0.939941)" fill="#D9D9D9"/>
</mask>
<g mask="url(#mask0_1_1539)">
<path d="M9.35444 22.04L17.7794 13.64C17.8794 13.54 17.9503 13.4316 17.9919 13.315C18.0336 13.1983 18.0544 13.0733 18.0544 12.94C18.0544 12.8066 18.0336 12.6816 17.9919 12.565C17.9503 12.4483 17.8794 12.34 17.7794 12.24L9.35444 3.81497C9.12111 3.58163 8.82944 3.46497 8.47944 3.46497C8.12944 3.46497 7.82944 3.58997 7.57944 3.83997C7.32944 4.08997 7.20444 4.38163 7.20444 4.71497C7.20444 5.0483 7.32944 5.33997 7.57944 5.58997L14.9294 12.94L7.57944 20.29C7.34611 20.5233 7.22944 20.8108 7.22944 21.1525C7.22944 21.4941 7.35444 21.79 7.60444 22.04C7.85444 22.29 8.14611 22.415 8.47944 22.415C8.81278 22.415 9.10444 22.29 9.35444 22.04Z" fill="white"/>
</g>
</svg>
