<svg width="116" height="49" viewBox="0 0 116 49" fill="none" xmlns="http://www.w3.org/2000/svg">
<g clip-path="url(#clip0_1_955)">
<path d="M50.6852 4.81525V14.2911L56.1684 4.81525H64.7277V27.7406H56.7197L56.721 18.2648L51.2311 27.7406H43.6673V18.2648L38.1774 27.7406H28.6962L41.9707 4.81525H50.6852Z" fill="#D6D6D6"/>
<path d="M23.007 4.81525L9.73253 27.7406H0.25L13.5245 4.81525H23.007Z" fill="#0066B1"/>
<path d="M32.4882 4.81525L19.2137 27.7406H9.73253L23.007 4.81525H32.4882Z" fill="#003D78"/>
<path d="M41.9707 4.81525L28.6962 27.7406H19.2137L32.4882 4.81525H41.9707Z" fill="#E22718"/>
</g>
<path d="M97.5748 4.81525H85.1389L73.3247 16.6511V23.7953H95.6058V27.7406H106.28V12.1727H95.6058V16.6511H87.2115V14.9451L97.5748 4.81525Z" fill="#D6D6D6"/>
<g clip-path="url(#clip1_1_955)">
<path d="M19.4907 38.1891C19.336 38.5784 19.2542 38.8834 19.1028 39.1496C18.3878 40.4068 17.6466 41.6481 16.9323 42.9053C16.7125 43.292 16.4096 43.3954 15.9854 43.3935C11.9619 43.3763 7.93783 43.375 3.91437 43.3705C2.95659 43.3693 1.99816 43.375 1.04038 43.3731C0.809719 43.3724 0.578419 43.352 0.25 43.3367C0.318367 43.0431 0.324118 42.7821 0.435934 42.5798C1.20778 41.1847 2.00519 39.8037 2.78726 38.4144C2.90611 38.2031 3.06457 38.1048 3.30353 38.1234C3.38851 38.1297 3.47349 38.1253 3.55911 38.1259C8.51927 38.1368 13.4801 38.147 18.4402 38.1591C18.7514 38.1597 19.0626 38.1763 19.4907 38.1891Z" fill="#D6D6D6"/>
<path d="M41.8593 38.1961C43.111 38.0627 52.1936 38.1316 52.7463 38.2771C52.9335 38.6377 52.8102 38.9849 52.6326 39.2995C51.9329 40.5408 51.2218 41.7757 50.4934 43.0003C50.3982 43.1599 50.1822 43.3347 50.0116 43.3462C49.4008 43.3877 48.7848 43.3628 48.1535 43.3628C48.1069 42.9116 48.2666 42.5702 48.4551 42.239C48.8442 41.5555 49.2404 40.8752 49.6276 40.1904C49.7305 40.0085 49.8704 39.7481 49.9605 39.5605C49.5771 39.4967 48.4909 39.4329 48.211 39.4967C48.0443 39.6052 47.9158 39.7941 47.8111 39.9715C47.2609 40.9064 46.7076 41.8401 46.1913 42.7936C45.9715 43.1994 45.6942 43.3864 45.2329 43.3641C44.7288 43.3392 44.2227 43.3584 43.6949 43.3584C43.6604 42.8701 43.8617 42.5204 44.0566 42.1739C44.4521 41.4693 44.8604 40.7718 45.2565 40.0679C45.3466 39.9083 45.4099 39.7335 45.5358 39.4558C44.9396 39.4558 44.4336 39.4093 43.9441 39.4782C43.7422 39.5063 43.5231 39.7513 43.4023 39.9517C42.8637 40.8439 42.3257 41.7386 41.8535 42.6666C41.5826 43.1988 41.3347 43.3584 40.6452 43.3692C40.1526 43.3692 39.8338 43.3584 39.29 43.3584C39.29 43.0705 39.29 42.8472 39.4127 42.5664C40.2203 41.0966 41.0491 39.6377 41.8593 38.1961Z" fill="#D6D6D6"/>
<path d="M51.0469 44.9238C51.2705 44.4746 51.3705 44.2512 51.5382 43.9429C52.4423 42.2817 53.365 40.6308 54.2736 38.9727C54.5918 38.3926 55.0454 38.1457 55.7272 38.1565C57.8114 38.1884 59.8969 38.1846 61.9812 38.1597C62.7901 38.1501 63.0131 38.4424 62.6259 39.1661C61.9754 40.3838 61.2688 41.5721 60.5787 42.7687C60.304 43.2454 59.8497 43.3935 59.3308 43.3941C58.0542 43.3947 56.7776 43.3922 55.501 43.3896C54.1138 43.3871 54.3426 43.218 53.6793 44.4178C53.4845 44.7707 53.2832 44.9321 52.8251 44.9321C52.2609 44.9238 51.7012 44.9238 51.0469 44.9238ZM59.8458 39.5873C59.626 39.5267 59.5487 39.4878 59.4701 39.4865C58.644 39.4712 57.8178 39.4654 56.9923 39.4501C56.6473 39.4437 56.4434 39.6422 56.2888 39.9109C55.9623 40.4795 55.6384 41.0507 55.3246 41.6263C55.232 41.7963 55.1917 41.9218 55.1917 42.066C56.1981 42.066 57.1476 42.0782 58.0958 42.0545C58.2606 42.0501 58.4893 41.9339 58.573 41.798C59.0031 41.0998 59.396 40.3787 59.8458 39.5873Z" fill="#D6D6D6"/>
<path d="M64.9828 42.0412C66.9169 42.0412 68.7986 42.0412 70.6938 42.0412C70.8222 42.5179 70.6497 42.8855 70.4318 43.2103C70.35 43.3322 70.1008 43.3852 69.9251 43.3922C69.2664 43.4171 68.607 43.4133 67.9476 43.4133C66.1611 43.4139 64.3739 43.4107 62.5874 43.4075C62.4181 43.4069 62.2494 43.3922 62.0731 43.3833C61.8431 42.9863 61.9855 42.627 62.1721 42.2939C62.7951 41.1822 63.4423 40.0838 64.0653 38.9721C64.3637 38.4399 64.7886 38.1642 65.4039 38.1667C67.616 38.175 69.828 38.1712 72.04 38.1846C72.6227 38.1878 72.7659 38.3844 72.5569 38.9504C72.3959 39.3844 72.157 39.7928 71.9269 40.1981C71.6841 40.6774 71.5206 41.1215 71.1666 41.3328C70.8535 41.4751 70.2995 41.4023 69.8542 41.3998C68.5143 41.3921 67.1738 41.3857 65.8346 41.357C65.393 41.3462 65.0844 41.4598 64.9828 42.0412ZM66.0703 40.1477C67.1323 40.1477 68.1233 40.1547 69.1143 40.1438C69.4587 40.14 69.6561 39.969 69.605 39.5465C68.5967 39.5465 67.6044 39.5484 66.6115 39.5452C66.2607 39.5446 66.1445 39.7584 66.0703 40.1477Z" fill="#D6D6D6"/>
<path d="M94.5049 43.3903C94.4001 42.9595 94.5202 42.6213 94.6972 42.3022C95.2863 41.2428 95.8921 40.1923 96.4729 39.1285C96.8 38.5299 97.246 38.2554 97.9597 38.2676C100.323 38.3071 102.687 38.2899 105.05 38.2976C105.196 38.2982 105.341 38.3237 105.483 38.3371C105.705 38.6288 105.656 38.9172 105.527 39.1942C105.393 39.4827 105.233 39.7596 105.077 40.0373C104.586 40.9084 104.077 41.7687 103.605 42.65C103.326 43.1727 102.938 43.4503 102.337 43.4445C101.592 43.4382 100.847 43.4624 100.101 43.4618C98.5469 43.4605 96.9923 43.4541 95.4384 43.4426C95.1247 43.4401 94.8103 43.4082 94.5049 43.3903ZM97.4447 42.1184C97.7367 42.1343 97.9622 42.1554 98.1878 42.158C98.782 42.1637 99.3769 42.1701 99.9711 42.1618C101.66 42.1382 101.19 42.4183 102.052 40.9441C102.293 40.5312 102.565 40.1304 102.715 39.6524C102.61 39.6173 102.553 39.5829 102.496 39.5822C101.392 39.5695 100.289 39.5669 99.1846 39.5478C98.8874 39.5427 98.7053 39.6875 98.5705 39.9198C98.2632 40.4521 97.9559 40.9843 97.6619 41.5242C97.575 41.6851 97.5335 41.8701 97.4447 42.1184Z" fill="#D6D6D6"/>
<path d="M28.971 43.2672C28.879 42.7783 29.04 42.4241 29.224 42.0929C29.8208 41.0163 30.44 39.9524 31.0457 38.8809C31.3192 38.3965 31.7038 38.1425 32.2833 38.1457C34.6845 38.1598 37.0863 38.1483 39.4881 38.1585C40.1028 38.161 40.251 38.3991 40.0338 38.9594C39.9878 39.0781 39.9341 39.1949 39.8702 39.3047C39.2415 40.3877 38.6038 41.4662 37.9815 42.553C37.6901 43.0617 37.2786 43.3061 36.6838 43.3074C34.2826 43.3131 31.8814 43.338 29.4803 43.3495C29.3167 43.3501 29.1531 43.2978 28.971 43.2672ZM31.8527 41.9193C31.9536 41.9921 31.9869 42.0361 32.0201 42.0367C33.1638 42.047 34.3069 42.0559 35.4506 42.0559C35.7023 42.0559 35.8793 41.927 36.002 41.694C36.3074 41.1133 36.5554 40.5959 36.8467 40.0073C36.9572 39.7839 37.0211 39.6711 37.0908 39.498C37.117 39.4329 36.9087 39.4515 36.8467 39.4508C36.1253 39.4457 35.4046 39.4387 34.6832 39.4425C34.2385 39.4444 33.6666 39.401 33.3721 39.5146C33.0111 39.7208 32.8111 40.2262 32.5709 40.6193C32.3108 41.0456 32.0865 41.4924 31.8527 41.9193Z" fill="#D6D6D6"/>
<path d="M115.495 38.3295C115.735 38.7347 115.66 39.0698 115.493 39.371C114.784 40.6538 114.064 41.9308 113.329 43.1982C113.246 43.3405 113.045 43.4943 112.891 43.502C112.238 43.5358 111.583 43.516 110.929 43.516C110.802 43.0533 111.008 42.7445 111.181 42.4381C111.577 41.7348 111.991 41.0411 112.394 40.3423C112.508 40.1451 112.614 39.9428 112.747 39.699C112.587 39.6537 112.49 39.6027 112.392 39.602C111.521 39.5944 110.649 39.5988 109.777 39.5924C109.399 39.5899 109.21 39.826 109.046 40.117C108.527 41.0437 107.972 41.9518 107.491 42.8976C107.251 43.3686 107.085 43.4854 106.475 43.4854C105.836 43.4854 105.433 43.4975 104.9 43.4854C104.853 43.0878 104.989 42.7744 105.14 42.5045C105.868 41.2077 106.614 39.9218 107.332 38.6199C107.487 38.339 107.701 38.3084 107.964 38.3071C108.921 38.302 109.878 38.2886 110.835 38.288C112.175 38.2867 113.514 38.2937 114.854 38.3001C115.066 38.3014 115.276 38.3193 115.495 38.3295Z" fill="#D6D6D6"/>
<path d="M22.0499 42.0189C23.9323 42.0482 25.7271 42.0769 27.5743 42.1056C27.5455 42.3194 27.5436 42.4841 27.5001 42.6366C27.3219 43.2633 27.2254 43.3488 26.5602 43.3622C25.476 43.3846 24.391 43.3865 23.3067 43.3916C22.2224 43.3973 21.1375 43.3967 20.0532 43.3986C19.8002 43.3993 19.5472 43.3986 19.3331 43.3986C19.0296 43.0425 19.0699 42.7164 19.2468 42.4024C19.935 41.1816 20.6244 39.9607 21.3324 38.7513C21.5579 38.3665 21.9055 38.1451 22.3841 38.1463C24.8076 38.154 27.2311 38.1514 29.6547 38.1546C29.716 38.1546 29.7774 38.1802 29.9141 38.2108C29.8643 38.4316 29.8342 38.6543 29.762 38.8624C29.5978 39.3372 29.4822 39.4259 28.9729 39.4291C27.5059 39.4399 26.0382 39.4368 24.5706 39.4412C24.3156 39.4419 24.0568 39.4297 23.8064 39.4661C23.6505 39.4884 23.4403 39.5491 23.3681 39.6639C22.9112 40.3979 22.4263 41.1177 22.0499 42.0189Z" fill="#D6D6D6"/>
<path d="M72.5148 43.3195C72.4049 42.8421 72.5927 42.4369 72.81 42.045C73.1288 41.4694 73.463 40.902 73.7857 40.3283C73.909 40.1088 74.2342 39.6231 74.3639 39.3748C74.1447 39.3748 73.9211 39.3748 73.5384 39.3748C73.5761 39.1764 73.6099 38.9734 73.6547 38.773C73.7384 38.3965 73.9211 38.2006 74.3639 38.2006C75.1351 38.2006 75.0964 38.086 75.4047 37.4635C75.6463 36.9759 75.6463 36.8859 76.3101 36.877C76.9242 36.877 77.4008 36.8859 78.0296 36.8859C77.8986 37.3614 77.7944 37.7398 77.6717 38.1859C78.5605 38.1859 79.4027 38.1859 80.241 38.1859C80.3675 38.6543 80.193 39.0073 79.97 39.3072C79.8697 39.4425 79.6078 39.5114 79.4167 39.5159C78.7586 39.5318 78.0979 39.5287 77.4411 39.4878C77.0047 39.4604 76.7159 39.5995 76.5076 39.985C76.1485 40.6506 75.7638 41.3028 75.3415 42.045C76.2884 42.2218 77.1363 42.0208 78.0564 42.1676C77.9701 42.5032 77.912 42.7847 77.8251 43.0565C77.7446 43.308 77.5548 43.4127 77.2865 43.4107C75.7562 43.398 74.2259 43.3922 72.695 43.3807C72.6349 43.3807 72.5768 43.3418 72.5148 43.3195Z" fill="#D6D6D6"/>
<path d="M83.8344 43.3559C83.7475 42.8855 83.8599 42.5339 84.0593 42.1931C84.4554 41.5141 84.8426 40.8299 85.2292 40.1452C85.3116 39.9997 85.4854 39.6882 85.6452 39.4789C85.3257 39.4789 85.2618 39.4789 84.8938 39.431C84.7839 39.0137 84.973 38.6863 85.1877 38.4112C85.2918 38.2778 85.5647 38.2217 85.7595 38.2249C86.2062 38.2332 86.47 38.0391 86.6259 37.6365C86.6943 37.4597 86.7895 37.288 86.9013 37.1348C86.9691 37.0423 87.0911 36.9313 87.1914 36.9287C87.8661 36.9108 88.5409 36.9191 89.3204 36.9191C89.2047 37.3901 89.1134 37.7654 89.0003 38.2268C89.8724 38.2268 90.7114 38.2268 91.6283 38.2268C91.5835 38.5197 91.5714 38.7239 91.5196 38.9173C91.3842 39.4215 91.2353 39.5453 90.7139 39.551C90.0545 39.558 89.3932 39.5631 88.7358 39.5229C88.2661 39.4942 87.9805 39.6755 87.7741 40.0839C87.5633 40.5006 87.3 40.8899 87.0751 41.2996C86.9563 41.5154 86.87 41.7489 86.7429 42.0304C87.6393 42.2397 88.493 42.0246 89.3523 42.1969C89.3191 42.412 89.3083 42.5786 89.2661 42.7362C89.0987 43.3623 89.0322 43.4197 88.3939 43.4197C87.0745 43.4203 85.7557 43.412 84.4363 43.4031C84.2503 43.4018 84.0631 43.3744 83.8344 43.3559Z" fill="#D6D6D6"/>
<path d="M78.9727 43.4012C79.1918 42.943 79.2206 42.867 79.3196 42.6877C80.1496 41.1854 80.7892 39.8478 81.731 38.1808C82.4843 38.1706 83.2121 38.1591 84.0766 38.2108C83.8983 38.6658 83.7294 39.0175 83.5686 39.3053C82.8651 40.5644 82.2255 41.7802 81.5086 43.0317C81.4026 43.2174 81.3061 43.4044 81.0429 43.4025C80.3879 43.3974 79.7324 43.4012 78.9727 43.4012Z" fill="#D6D6D6"/>
<path d="M90.3037 43.4305C90.4315 43.0552 90.4839 42.7814 90.611 42.5491C91.3567 41.1898 92.1158 39.8369 92.8851 38.4903C92.9579 38.362 93.1291 38.2063 93.255 38.2063C93.9278 38.2037 94.6013 38.2465 95.3834 38.2784C95.2121 38.7041 94.9853 39.1585 94.814 39.4648C94.1182 40.7067 93.5208 41.8248 92.825 43.0667C92.6825 43.3214 92.517 43.4401 92.2269 43.4343C91.634 43.4222 91.0411 43.4305 90.3037 43.4305Z" fill="#D6D6D6"/>
<path d="M93.6595 37.6134C93.6206 37.1992 93.7707 36.8757 93.9458 36.5649C93.9912 36.4838 94.101 36.3907 94.1854 36.3875C94.8978 36.3581 95.6122 36.3211 96.3374 36.4175C96.3821 36.9095 96.1802 37.2529 95.9527 37.5802C95.8997 37.6562 95.7777 37.727 95.6869 37.7277C95.0135 37.7309 94.3368 37.773 93.6595 37.6134Z" fill="#D6D6D6"/>
<path d="M84.9881 36.4066C85.0776 36.7991 84.9441 37.1437 84.7294 37.422C84.6086 37.5783 84.3441 37.6945 84.1402 37.7021C83.5729 37.7238 83.0029 37.6792 82.4534 37.6613C82.2081 36.9133 82.5812 36.3441 83.2758 36.3396C83.7626 36.3358 84.2495 36.3434 84.7364 36.3524C84.8175 36.3524 84.898 36.3856 84.9881 36.4066Z" fill="#D6D6D6"/>
</g>
<defs>
<clipPath id="clip0_1_955">
<rect width="64.4777" height="22.9254" fill="white" transform="translate(0.25 4.81525)"/>
</clipPath>
<clipPath id="clip1_1_955">
<rect width="115.399" height="8.59702" fill="white" transform="translate(0.25 36.3377)"/>
</clipPath>
</defs>
</svg>
