<svg width="21" height="21" viewBox="0 0 21 21" fill="none" xmlns="http://www.w3.org/2000/svg">
<circle cx="10.25" cy="10.375" r="10" fill="#FFDD9A"/>
<mask id="mask0_1_1047" style="mask-type:alpha" maskUnits="userSpaceOnUse" x="4" y="4" width="13" height="13">
<rect x="4.09668" y="4.22119" width="12.3077" height="12.3077" fill="#D9D9D9"/>
</mask>
<g mask="url(#mask0_1_1047)">
<path d="M10.25 10.375C9.68592 10.375 9.20302 10.1742 8.80131 9.77246C8.3996 9.37075 8.19874 8.88785 8.19874 8.32374C8.19874 7.75964 8.3996 7.27673 8.80131 6.87503C9.20302 6.47332 9.68592 6.27246 10.25 6.27246C10.8141 6.27246 11.297 6.47332 11.6987 6.87503C12.1005 7.27673 12.3013 7.75964 12.3013 8.32374C12.3013 8.88785 12.1005 9.37075 11.6987 9.77246C11.297 10.1742 10.8141 10.375 10.25 10.375ZM6.14746 13.4519L6.14746 13.0417C6.14746 12.7511 6.22225 12.484 6.37182 12.2404C6.52139 11.9968 6.72011 11.8109 6.96797 11.6827C7.49789 11.4178 8.03635 11.219 8.58336 11.0866C9.13037 10.9541 9.68592 10.8878 10.25 10.8878C10.8141 10.8878 11.3697 10.9541 11.9167 11.0866C12.4637 11.219 13.0022 11.4178 13.5321 11.6827C13.7799 11.8109 13.9787 11.9968 14.1282 12.2404C14.2778 12.484 14.3526 12.7511 14.3526 13.0417V13.4519C14.3526 13.734 14.2522 13.9755 14.0513 14.1763C13.8505 14.3772 13.609 14.4776 13.3269 14.4776L7.1731 14.4776C6.89105 14.4776 6.6496 14.3772 6.44874 14.1763C6.24789 13.9755 6.14746 13.734 6.14746 13.4519Z" fill="black"/>
</g>
</svg>
