<svg width="28" height="28" viewBox="0 0 28 28" fill="none" xmlns="http://www.w3.org/2000/svg">
<circle cx="13.7395" cy="13.875" r="13.5" fill="white"/>
<mask id="mask0_965_42" style="mask-type:alpha" maskUnits="userSpaceOnUse" x="2" y="3" width="23" height="22">
<rect x="2.93951" y="3.07501" width="21.6" height="21.6" fill="#D9D9D9"/>
</mask>
<g mask="url(#mask0_965_42)">
<path d="M12.8396 18.3751H14.6396V12.9751H12.8396V18.3751ZM13.7396 11.1751C13.9946 11.1751 14.2085 11.0887 14.3813 10.9159C14.5535 10.7437 14.6396 10.5301 14.6396 10.2751C14.6396 10.0201 14.5535 9.80622 14.3813 9.63342C14.2085 9.46122 13.9946 9.37512 13.7396 9.37512C13.4846 9.37512 13.271 9.46122 13.0988 9.63342C12.926 9.80622 12.8396 10.0201 12.8396 10.2751C12.8396 10.5301 12.926 10.7437 13.0988 10.9159C13.271 11.0887 13.4846 11.1751 13.7396 11.1751ZM13.7396 22.8751C12.4946 22.8751 11.3246 22.6387 10.2296 22.1659C9.13462 21.6937 8.18212 21.0526 7.37212 20.2426C6.56212 19.4326 5.92102 18.4801 5.44882 17.3851C4.97602 16.2901 4.73962 15.1201 4.73962 13.8751C4.73962 12.6301 4.97602 11.4601 5.44882 10.3651C5.92102 9.27012 6.56212 8.31762 7.37212 7.50762C8.18212 6.69762 9.13462 6.05622 10.2296 5.58342C11.3246 5.11122 12.4946 4.87512 13.7396 4.87512C14.9846 4.87512 16.1546 5.11122 17.2496 5.58342C18.3446 6.05622 19.2971 6.69762 20.1071 7.50762C20.9171 8.31762 21.5582 9.27012 22.0304 10.3651C22.5032 11.4601 22.7396 12.6301 22.7396 13.8751C22.7396 15.1201 22.5032 16.2901 22.0304 17.3851C21.5582 18.4801 20.9171 19.4326 20.1071 20.2426C19.2971 21.0526 18.3446 21.6937 17.2496 22.1659C16.1546 22.6387 14.9846 22.8751 13.7396 22.8751ZM13.7396 21.0751C15.7496 21.0751 17.4521 20.3776 18.8471 18.9826C20.2421 17.5876 20.9396 15.8851 20.9396 13.8751C20.9396 11.8651 20.2421 10.1626 18.8471 8.76762C17.4521 7.37262 15.7496 6.67512 13.7396 6.67512C11.7296 6.67512 10.0271 7.37262 8.63212 8.76762C7.23712 10.1626 6.53962 11.8651 6.53962 13.8751C6.53962 15.8851 7.23712 17.5876 8.63212 18.9826C10.0271 20.3776 11.7296 21.0751 13.7396 21.0751Z" fill="black"/>
</g>
</svg>
