<svg width="717" height="152" viewBox="0 0 717 152" fill="none" xmlns="http://www.w3.org/2000/svg">
<g filter="url(#filter0_bi_1_814)">
<path d="M2.90343 38.2854C0.308632 19.0839 15.2392 2 34.6152 2H682.385C701.761 2 716.691 19.0839 714.097 38.2854L702.745 122.285C700.6 138.158 687.05 150 671.033 150H45.9665C29.9496 150 16.3997 138.158 14.2548 122.285L2.90343 38.2854Z" fill="black" fill-opacity="0.1"/>
<path d="M2.90343 38.2854C0.308632 19.0839 15.2392 2 34.6152 2H682.385C701.761 2 716.691 19.0839 714.097 38.2854L702.745 122.285C700.6 138.158 687.05 150 671.033 150H45.9665C29.9496 150 16.3997 138.158 14.2548 122.285L2.90343 38.2854Z" stroke="url(#paint0_linear_1_814)" stroke-opacity="0.1" stroke-width="3.34302"/>
</g>
<defs>
<filter id="filter0_bi_1_814" x="-77.0659" y="-77.6754" width="871.132" height="307.351" filterUnits="userSpaceOnUse" color-interpolation-filters="sRGB">
<feFlood flood-opacity="0" result="BackgroundImageFix"/>
<feGaussianBlur in="BackgroundImageFix" stdDeviation="39.0019"/>
<feComposite in2="SourceAlpha" operator="in" result="effect1_backgroundBlur_1_814"/>
<feBlend mode="normal" in="SourceGraphic" in2="effect1_backgroundBlur_1_814" result="shape"/>
<feColorMatrix in="SourceAlpha" type="matrix" values="0 0 0 0 0 0 0 0 0 0 0 0 0 0 0 0 0 0 127 0" result="hardAlpha"/>
<feOffset dy="8.91473"/>
<feGaussianBlur stdDeviation="4.45736"/>
<feComposite in2="hardAlpha" operator="arithmetic" k2="-1" k3="1"/>
<feColorMatrix type="matrix" values="0 0 0 0 0 0 0 0 0 0 0 0 0 0 0 0 0 0 0.75 0"/>
<feBlend mode="normal" in2="shape" result="effect2_innerShadow_1_814"/>
</filter>
<linearGradient id="paint0_linear_1_814" x1="375.796" y1="-8.5168" x2="375.796" y2="77.7209" gradientUnits="userSpaceOnUse">
<stop stop-color="white"/>
<stop offset="1" stop-color="white"/>
</linearGradient>
</defs>
</svg>
